<svg xmlns="http://www.w3.org/2000/svg" viewBox="0 0 99.479 93.224">
  <defs>
    <style>
      .cls-1 {
        fill: none;
        stroke: #fff;
        stroke-miterlimit: 10;
        stroke-width: 2px;
      }
    </style>
  </defs>
  <g id="logo" transform="translate(-1.73 -2)">
    <path id="Path_1" data-name="Path 1" class="cls-1" d="M2.6,93.813,53.056,4.772a3.633,3.633,0,0,1,6.266.041l40.563,74.53a2.531,2.531,0,0,1-2.391,3.669L26.138,80.7a2.489,2.489,0,0,1-2.185-3.669L54.334,22.828a2.634,2.634,0,0,1,4.576.041L95.763,90.515a2.522,2.522,0,0,1-3.339,3.421L40.071,71.553c-.453-.206-2.226-1.278-2.226-1.731a1.12,1.12,0,0,1,.495-.866S65.712,50.282,66.783,49.581l.412,7.3"/>
    <path id="Path_2" data-name="Path 2" class="cls-1" d="M144.624,178.042V166.624a.132.132,0,0,0-.124-.124h-5.4" transform="translate(-80.231 -96.101)"/>
  </g>
</svg>
